<?xml version="1.0" encoding="UTF-8"?>
<svg id="_レイヤー_2" data-name="レイヤー 2" xmlns="http://www.w3.org/2000/svg" viewBox="0 0 37.73 36">
  <defs>
    <style>
      .cls-1 {
        fill: #574b46;
        stroke-width: 0px;
      }
    </style>
  </defs>
  <g id="_枠" data-name="枠">
    <path class="cls-1" d="m5.08,0c-1.3,0-2.38,1.06-2.38,2.36v4.21c-.7.24-1.32.67-1.8,1.25-.76.92-1.06,2.15-.82,3.32.84,4.05,2.03,9.83,2.07,10.04-.04.21-1.23,5.96-2.07,10.01-.24,1.18.06,2.4.82,3.33.76.93,1.91,1.47,3.11,1.47h29.62c1.22,0,2.38-.55,3.15-1.49h0c.77-.94,1.08-2.19.83-3.38-.84-4.05-2.01-9.75-2.05-9.95.04-.21,1.23-6,2.07-10.05.24-1.17-.06-2.39-.82-3.31-.47-.57-1.07-.99-1.75-1.23V2.36c0-1.3-1.08-2.36-2.38-2.36H5.08Zm0,1.8h27.63c.33,0,.58.25.58.56v3.99H4.5v-3.99c0-.32.24-.56.58-.56Zm-1.08,6.36h29.74c.66,0,1.28.29,1.7.8h0c.42.51.58,1.17.45,1.81h0c-.85,4.12-2.11,10.23-2.11,10.23l-.04.18.04.18s1.24,6.01,2.09,10.13c.14.66-.03,1.35-.46,1.87-.43.53-1.08.83-1.76.83H4.02c-.67,0-1.3-.3-1.72-.81-.42-.51-.59-1.18-.45-1.83.85-4.12,2.1-10.2,2.1-10.2l.04-.18-.04-.18s-1.26-6.1-2.11-10.22c-.13-.64.03-1.31.45-1.81h0c.42-.51,1.04-.81,1.7-.81Zm10.37,6.19c-3.99,0-4.34,3.62-4.36,4.5h1.69c.03-.61.3-2.97,2.68-2.97,2.22,0,2.53,1.53,2.53,2.3,0,.38-.23,2.3-2.68,2.3h-.69v1.46c.31-.08.61-.08,1-.08s2.99.08,2.99,2.68-2.68,2.76-3.06,2.76c-1.36,0-2.93-.82-2.98-3.04h-1.69c.02,1.1.35,4.5,4.67,4.5.84,0,4.83-.23,4.83-4.29,0-2.53-1.69-3.29-2.53-3.45v-.08c.54-.31,1.92-1.23,1.92-2.84,0-.61-.15-3.75-4.29-3.75Zm11.3.1c-.23.99-.67,1.67-1.34,2.04s-1.57.55-2.7.55v1.27h3.52v10.16h1.84v-14.02h-1.33Z"/>
  </g>
</svg>