<?xml version="1.0" encoding="UTF-8"?>
<svg id="_レイヤー_2" data-name="レイヤー 2" xmlns="http://www.w3.org/2000/svg" viewBox="0 0 36 36">
  <defs>
    <style>
      .cls-1 {
        fill: none;
      }

      .cls-1, .cls-2 {
        stroke-width: 0px;
      }

      .cls-2 {
        fill: #574b46;
      }
    </style>
  </defs>
  <g id="_枠" data-name="枠">
    <g>
      <path class="cls-2" d="m36,18C36,8.06,27.94,0,18,0S0,8.06,0,18c0,8.98,6.58,16.43,15.19,17.78v-12.58h-4.57v-5.2h4.57v-3.97c0-4.51,2.69-7,6.8-7,1.97,0,4.03.35,4.03.35v4.43h-2.27c-2.24,0-2.93,1.39-2.93,2.81v3.38h4.99l-.8,5.2h-4.19v12.58c8.61-1.35,15.19-8.8,15.19-17.78Z"/>
      <path class="cls-1" d="m25.01,23.2l.8-5.2h-4.99v-3.38c0-1.42.7-2.81,2.93-2.81h2.27v-4.43s-2.06-.35-4.03-.35c-4.11,0-6.8,2.49-6.8,7v3.97h-4.57v5.2h4.57v12.58c.92.14,1.86.22,2.81.22s1.9-.07,2.81-.22v-12.58h4.19Z"/>
    </g>
  </g>
</svg>