<?xml version="1.0" encoding="UTF-8"?>
<svg id="_レイヤー_2" data-name="レイヤー 2" xmlns="http://www.w3.org/2000/svg" viewBox="0 0 99.12 21.15">
  <defs>
    <style>
      .cls-1 {
        fill: #574b46;
      }

      .cls-1, .cls-2 {
        stroke-width: 0px;
      }

      .cls-2 {
        fill: #ed8ea0;
      }
    </style>
  </defs>
  <g id="_文字" data-name="文字">
    <g>
      <g>
        <path class="cls-1" d="m34.36,6.61c0-3.65,2.96-6.61,6.61-6.61s6.61,2.96,6.61,6.61h-1.32c0-2.92-2.37-5.29-5.29-5.29s-5.29,2.37-5.29,5.29h-1.32Z"/>
        <path class="cls-1" d="m47.58,6.61v5.95c0,.36-.3.66-.66.66h0c-.36,0-.66-.3-.66-.66v-5.95h1.32Z"/>
        <path class="cls-1" d="m34.36.66C34.36.3,34.66,0,35.02,0s.66.3.66.66v11.89c0,.36-.3.66-.66.66s-.66-.3-.66-.66V.66Z"/>
      </g>
      <g>
        <path class="cls-1" d="m52.86,6.61c0-2.92,2.37-5.29,5.29-5.29s5.29,2.37,5.29,5.29-2.37,5.29-5.29,5.29-5.29-2.37-5.29-5.29Zm5.29,6.61c3.65,0,6.61-2.96,6.61-6.61C64.76,2.96,61.8,0,58.15,0s-6.61,2.96-6.61,6.61,2.96,6.61,6.61,6.61Z"/>
        <path class="cls-1" d="m52.86,6.61v13.88c0,.36-.3.66-.66.66h0c-.36,0-.66-.3-.66-.66V6.61h1.32Z"/>
      </g>
      <g>
        <g>
          <circle class="cls-2" cx="92.51" cy="6.61" r="6.61"/>
          <circle class="cls-2" cx="85.9" cy="6.61" r="1.06"/>
        </g>
        <g>
          <ellipse class="cls-1" cx="88.31" cy="4.79" rx=".66" ry="1.06"/>
          <path class="cls-1" d="m89.07,9.19h-2.65c.31.73.76,1.4,1.3,1.97.79-.31,1.35-1.07,1.35-1.97Z"/>
        </g>
      </g>
      <g>
        <g>
          <circle class="cls-2" cx="23.79" cy="6.61" r="6.61"/>
          <circle class="cls-2" cx="30.4" cy="6.61" r="1.06"/>
        </g>
        <g>
          <ellipse class="cls-1" cx="27.99" cy="4.79" rx=".66" ry="1.06"/>
          <path class="cls-1" d="m27.75,9.19h-.53c0,.9.56,1.66,1.35,1.97.13-.14.26-.28.38-.43-.69-.17-1.2-.79-1.2-1.53Z"/>
        </g>
      </g>
      <g>
        <path class="cls-1" d="m68.72.66C68.72.3,69.02,0,69.38,0s.66.3.66.66v11.89c0,.36-.3.66-.66.66s-.66-.3-.66-.66V.66Z"/>
        <path class="cls-1" d="m81.94,6.61c0-3.65-2.96-6.61-6.61-6.61s-6.61,2.96-6.61,6.61h1.32c0-2.92,2.37-5.29,5.29-5.29,2.92,0,5.29,2.37,5.29,5.29h1.32Z"/>
        <circle class="cls-1" cx="81.28" cy="6.61" r=".66"/>
      </g>
      <g>
        <path class="cls-1" d="m1.32,6.61c0-2.92,2.37-5.29,5.29-5.29s5.29,2.37,5.29,5.29-2.37,5.29-5.29,5.29S1.32,9.53,1.32,6.61Zm5.29,6.61c3.65,0,6.61-2.96,6.61-6.61C13.22,2.96,10.26,0,6.61,0S0,2.96,0,6.61s2.96,6.61,6.61,6.61Z"/>
        <path class="cls-1" d="m13.22,14.54c0,3.65-2.96,6.61-6.61,6.61S0,18.19,0,14.54h1.32c0,2.92,2.37,5.29,5.29,5.29s5.29-2.37,5.29-5.29h1.32Z"/>
        <rect class="cls-1" x="11.89" y="6.61" width="1.32" height="7.93"/>
        <circle class="cls-1" cx=".66" cy="14.54" r=".66"/>
      </g>
    </g>
  </g>
</svg>