<?xml version="1.0" encoding="UTF-8"?>
<svg id="_レイヤー_2" data-name="レイヤー 2" xmlns="http://www.w3.org/2000/svg" xmlns:xlink="http://www.w3.org/1999/xlink" viewBox="0 0 66.24 64.32">
  <defs>
    <style>
      .cls-1 {
        fill: url(#Black_White_コピ_2);
      }

      .cls-1, .cls-2, .cls-3, .cls-4, .cls-5, .cls-6, .cls-7, .cls-8 {
        stroke-width: 0px;
      }

      .cls-2 {
        fill: #3d62ab;
      }

      .cls-3 {
        fill: #e40012;
      }

      .cls-4 {
        fill: #a485bb;
      }

      .cls-5 {
        fill: #8cc11f;
      }

      .cls-6 {
        fill: #fff;
      }

      .cls-7 {
        fill: #ef9aac;
      }

      .cls-8 {
        fill: #f19500;
      }
    </style>
    <radialGradient id="Black_White_コピ_2" data-name="Black &amp;amp; White コピ－ 2" cx="2449.86" cy="107.3" fx="2449.86" fy="107.3" r="5.06" gradientTransform="translate(-4947.57 -187.72) scale(2.03)" gradientUnits="userSpaceOnUse">
      <stop offset="0" stop-color="#fff"/>
      <stop offset="1" stop-color="#00b0b1"/>
    </radialGradient>
  </defs>
  <g id="_枠" data-name="枠">
    <g>
      <path class="cls-3" d="m30.03,3.48c7.73-2.22,15.78,1.86,18.66,9.19-.09-.49-.2-.97-.34-1.46C45.99,3,37.42-1.75,29.21.6c-8.22,2.36-12.97,10.93-10.61,19.14.14.49.3.96.48,1.42-1.44-7.75,3.22-15.47,10.95-17.68Z"/>
      <path class="cls-7" d="m27.16,23.31c-.75-.53-1.82-1.08-3.03-1.14-1.02-.04-1.96.28-2.71.66.64-.54,1.31-1.28,1.67-2.24.42-1.13.33-2.33.14-3.23l-1.21.66-.48-1.29c-.73.55-1.59,1.39-2.02,2.53-.36.96-.34,1.96-.21,2.79-.32-.78-.81-1.64-1.61-2.28-.95-.75-2.12-1.03-3.03-1.13l.26,1.36-1.38.06c.3.87.83,1.94,1.78,2.7.8.64,1.76.93,2.58,1.06-.84.06-1.81.27-2.67.83-1.01.67-1.64,1.7-2.01,2.53l1.37.18-.37,1.33c.91-.01,2.11-.19,3.12-.86.85-.57,1.42-1.38,1.81-2.13-.2.81-.31,1.81-.03,2.79.32,1.17,1.11,2.08,1.79,2.69l.59-1.25,1.15.77c.27-.87.47-2.06.15-3.23-.27-.99-.88-1.78-1.47-2.38.71.44,1.62.85,2.65.9,1.21.05,2.32-.41,3.11-.87l-1-.95,1.08-.85Z"/>
      <g>
        <path class="cls-6" d="m16.9,21.89c-.11-.09-.13-.25-.04-.36.09-.11.25-.13.36-.04.11.09.13.25.04.37-.09.11-.25.13-.37.04Z"/>
        <path class="cls-6" d="m17.05,25.72c.08.12.05.28-.07.36-.12.08-.28.05-.36-.07-.08-.12-.05-.28.07-.36.12-.08.28-.05.36.07Z"/>
        <path class="cls-6" d="m21.03,27.27c.04.14-.04.28-.18.32-.14.04-.28-.04-.32-.18-.04-.14.04-.28.18-.32.14-.04.28.04.32.18Z"/>
        <path class="cls-6" d="m21.42,23.81c.9.04,1.63.18,1.63.18,0,0-.74.08-1.64.04-.26-.01-.5-.03-.72-.05-.02.16-.06.32-.17.46-.1.13-.24.21-.38.26.08.22.16.46.23.73.24.87.33,1.61.33,1.61,0,0-.3-.68-.54-1.55-.07-.27-.13-.51-.18-.74-.24.04-.5,0-.71-.17-.05-.04-.08-.1-.12-.15-.19.14-.39.29-.63.45-.75.5-1.43.81-1.43.81,0,0,.55-.5,1.3-1,.23-.15.44-.28.64-.39-.15-.28-.13-.62.05-.89-.18-.13-.37-.27-.57-.43-.71-.56-1.21-1.11-1.21-1.11,0,0,.64.37,1.35.93.2.16.38.32.55.46.22-.22.52-.31.81-.25.07-.23.15-.47.25-.74.32-.85.68-1.49.68-1.49,0,0-.15.72-.47,1.57-.1.27-.2.51-.3.72.08.03.15.06.22.11.2.16.31.38.33.61.22,0,.45,0,.71,0Z"/>
        <path class="cls-6" d="m23.62,24.02c0,.14-.13.25-.27.25-.14,0-.25-.13-.25-.27,0-.14.13-.25.27-.25.14,0,.25.13.25.27Z"/>
        <path class="cls-6" d="m20.79,20.41c.05-.13.2-.2.33-.15.13.05.2.2.15.33-.05.13-.2.2-.33.15-.13-.05-.2-.2-.15-.33Z"/>
      </g>
      <path class="cls-8" d="m3,27.68c.28-8.04,6.64-14.43,14.51-14.91-.49-.06-.99-.11-1.49-.12C7.48,12.35.31,19.04,0,27.58c-.3,8.54,6.38,15.71,14.93,16.01.5.02,1,.01,1.5-.02-7.81-1.03-13.71-7.85-13.43-15.88Z"/>
      <path class="cls-7" d="m26.59,43.12c-.75-.53-1.82-1.08-3.03-1.14-1.02-.04-1.96.28-2.71.66.64-.54,1.31-1.28,1.67-2.24.42-1.13.33-2.33.14-3.23l-1.21.66-.48-1.29c-.73.55-1.59,1.39-2.02,2.53-.36.96-.34,1.96-.21,2.79-.32-.78-.81-1.64-1.61-2.28-.95-.75-2.12-1.03-3.03-1.13l.26,1.35-1.38.06c.3.87.83,1.94,1.78,2.7.8.64,1.76.93,2.58,1.06-.84.06-1.81.27-2.67.83-1.01.67-1.64,1.7-2.01,2.53l1.37.18-.37,1.33c.91-.02,2.11-.19,3.12-.86.85-.57,1.42-1.38,1.81-2.13-.2.81-.31,1.81-.03,2.79.32,1.17,1.11,2.08,1.79,2.69l.59-1.25,1.15.77c.27-.87.47-2.06.15-3.23-.27-.99-.88-1.78-1.47-2.38.71.44,1.62.85,2.65.9,1.21.05,2.32-.41,3.11-.87l-1-.95,1.08-.86Z"/>
      <g>
        <path class="cls-6" d="m16.17,45.43c-.12.08-.15.24-.07.36.08.12.24.15.36.07.12-.08.15-.24.07-.36-.08-.12-.24-.15-.36-.07Z"/>
        <path class="cls-6" d="m20.14,46.9c-.14.04-.22.18-.18.32.04.14.18.22.32.18.14-.04.22-.18.18-.32-.04-.14-.18-.22-.32-.18Z"/>
        <path class="cls-6" d="m20.13,43.65c0-.15-.04-.31-.13-.45-.1-.15-.24-.24-.39-.31.09-.2.18-.42.27-.67.32-.85.47-1.57.47-1.57,0,0-.36.65-.68,1.49-.09.24-.16.47-.23.68-.23-.05-.48-.02-.69.12-.07.05-.12.11-.17.17-.17-.16-.37-.33-.59-.51-.71-.56-1.35-.93-1.35-.93,0,0,.5.54,1.21,1.11.23.18.44.33.63.47-.15.26-.15.57-.01.84-.19.11-.39.23-.61.38-.75.5-1.3,1-1.3,1,0,0,.67-.31,1.43-.81.22-.14.41-.28.58-.41.21.25.52.37.83.32.05.22.1.47.18.73.24.87.54,1.55.54,1.55,0,0-.09-.74-.33-1.61-.08-.27-.15-.51-.23-.73.06-.02.12-.04.18-.07.22-.15.35-.38.38-.62.23.02.48.05.76.06.9.04,1.64-.04,1.64-.04,0,0-.73-.14-1.63-.18-.28-.01-.53-.01-.77,0Z"/>
        <path class="cls-6" d="m22.85,43.6c-.14,0-.26.1-.27.25,0,.14.1.26.25.27.14,0,.26-.11.27-.25,0-.14-.11-.27-.25-.27Z"/>
        <path class="cls-6" d="m20.37,40.62c.13.05.28-.02.33-.15.05-.13-.02-.28-.15-.33-.13-.05-.28.02-.33.15-.05.13.02.28.15.33Z"/>
        <path class="cls-6" d="m16.61,41.66c.09-.11.07-.28-.04-.36-.11-.09-.28-.07-.37.04-.09.11-.07.28.04.36.11.09.28.07.37-.04Z"/>
      </g>
      <path class="cls-5" d="m17.65,60.57c-7.56-2.75-11.67-10.78-9.69-18.41-.21.45-.41.91-.58,1.38-2.92,8.03,1.22,16.91,9.25,19.84,8.03,2.92,16.91-1.22,19.84-9.25.17-.47.32-.95.44-1.43-3.39,7.11-11.7,10.62-19.26,7.87Z"/>
      <path class="cls-7" d="m45.24,49.48c-.75-.52-1.82-1.08-3.03-1.14-1.02-.04-1.96.28-2.71.66.64-.54,1.31-1.28,1.67-2.24.42-1.13.33-2.33.14-3.23l-1.21.66-.48-1.29c-.73.55-1.59,1.39-2.02,2.53-.36.96-.34,1.96-.21,2.79-.32-.78-.81-1.64-1.61-2.28-.95-.75-2.12-1.03-3.03-1.13l.26,1.36-1.38.06c.3.87.83,1.94,1.78,2.7.8.64,1.76.93,2.58,1.06-.84.06-1.81.27-2.67.83-1.01.67-1.64,1.7-2.01,2.53l1.37.17-.37,1.33c.92-.01,2.11-.19,3.12-.86.85-.57,1.42-1.38,1.81-2.13-.2.81-.31,1.81-.03,2.79.32,1.17,1.11,2.08,1.79,2.69l.59-1.25,1.15.76c.27-.87.47-2.06.15-3.23-.27-.99-.88-1.78-1.47-2.38.71.44,1.62.85,2.65.9,1.21.05,2.32-.41,3.11-.87l-1-.95,1.08-.86Z"/>
      <g>
        <path class="cls-6" d="m38.78,53.22c-.14.04-.22.18-.18.32.04.14.18.22.32.18.14-.04.22-.18.18-.32-.04-.14-.18-.22-.32-.18Z"/>
        <path class="cls-6" d="m38.78,50.02c0-.06,0-.13-.01-.19-.07-.26-.25-.45-.47-.55.09-.21.19-.44.29-.7.32-.85.47-1.57.47-1.57,0,0-.36.65-.68,1.5-.1.26-.18.5-.24.73-.15-.04-.31-.06-.46-.01-.17.05-.3.15-.41.27-.16-.15-.34-.3-.55-.47-.71-.56-1.35-.93-1.35-.93,0,0,.5.54,1.21,1.11.2.16.39.3.57.43-.12.2-.16.45-.09.69.02.08.07.15.11.22-.2.12-.43.25-.67.41-.75.5-1.3,1-1.3,1,0,0,.67-.31,1.43-.81.24-.16.45-.31.64-.46.2.22.5.32.8.27.05.21.1.45.17.7.24.87.54,1.55.54,1.55,0,0-.09-.74-.33-1.61-.07-.25-.14-.48-.21-.68.3-.12.52-.38.56-.69.23.02.47.05.75.06.9.04,1.64-.04,1.64-.04,0,0-.73-.14-1.63-.18-.28-.01-.54-.01-.77,0Z"/>
        <path class="cls-6" d="m41.5,49.96c-.14,0-.26.1-.27.25,0,.14.1.26.25.27.14,0,.26-.1.27-.25,0-.14-.1-.26-.25-.27Z"/>
        <path class="cls-6" d="m39.07,46.95c.13.05.28-.02.33-.15.05-.13-.02-.28-.15-.33-.13-.05-.28.02-.33.15-.05.13.02.28.15.33Z"/>
        <path class="cls-6" d="m35.32,48.05c.09-.11.07-.28-.04-.37-.11-.09-.28-.07-.36.04-.09.11-.07.28.04.36.11.09.28.07.36-.04Z"/>
        <path class="cls-6" d="m34.79,51.88c-.12.08-.15.24-.07.36.08.12.24.15.36.07.12-.08.15-.24.07-.36-.08-.12-.24-.15-.36-.07Z"/>
      </g>
      <path class="cls-2" d="m53.79,56.45c-4.95,6.34-13.86,7.77-20.5,3.53.36.34.74.67,1.13.98,6.73,5.26,16.46,4.07,21.72-2.67,5.26-6.74,4.07-16.46-2.67-21.72-.4-.31-.81-.6-1.22-.86,5.72,5.42,6.48,14.41,1.53,20.75Z"/>
      <path class="cls-7" d="m57.39,33.36c-.75-.53-1.82-1.08-3.03-1.14-1.02-.04-1.96.28-2.71.66.64-.54,1.31-1.28,1.67-2.24.42-1.13.33-2.33.14-3.23l-1.21.66-.48-1.29c-.73.55-1.59,1.39-2.02,2.53-.36.96-.34,1.96-.21,2.79-.32-.78-.81-1.64-1.61-2.28-.95-.75-2.12-1.03-3.03-1.13l.26,1.36-1.38.06c.3.87.83,1.94,1.78,2.7.8.64,1.76.93,2.58,1.06-.84.06-1.81.26-2.67.83-1.01.67-1.64,1.7-2.01,2.53l1.37.18-.37,1.33c.91-.02,2.11-.19,3.12-.86.85-.57,1.42-1.38,1.81-2.13-.2.82-.31,1.81-.03,2.79.32,1.17,1.11,2.08,1.79,2.69l.59-1.25,1.15.76c.27-.87.47-2.06.15-3.23-.27-.99-.88-1.78-1.47-2.38.71.44,1.62.85,2.65.9,1.21.05,2.32-.41,3.11-.87l-1-.95,1.08-.85Z"/>
      <g>
        <path class="cls-6" d="m50.93,33.89c-.02-.33-.2-.61-.49-.75.09-.21.19-.44.29-.7.32-.85.47-1.57.47-1.57,0,0-.36.65-.68,1.5-.1.26-.18.51-.24.73-.06-.02-.12-.04-.19-.05-.27-.01-.5.1-.67.28-.17-.15-.36-.32-.58-.49-.71-.56-1.35-.93-1.35-.93,0,0,.5.54,1.21,1.11.22.18.43.32.62.46-.08.13-.15.27-.15.44,0,.18.05.33.13.47-.19.11-.39.23-.61.38-.75.5-1.3,1-1.3,1,0,0,.67-.31,1.43-.81.22-.14.41-.28.58-.41.15.18.38.29.63.3.09,0,.16-.02.24-.04.05.23.1.48.18.76.24.87.55,1.55.55,1.55,0,0-.09-.74-.33-1.61-.08-.28-.16-.52-.24-.75.27-.12.46-.37.5-.68.22.02.45.04.71.05.9.04,1.64-.04,1.64-.04,0,0-.73-.14-1.63-.18-.26-.01-.5-.01-.72,0Z"/>
        <path class="cls-6" d="m53.6,33.83c-.14,0-.26.1-.27.25,0,.14.1.26.25.27.14,0,.26-.1.27-.25,0-.14-.11-.26-.25-.27Z"/>
        <path class="cls-6" d="m51.22,30.83c.13.05.28-.02.33-.15.05-.13-.02-.28-.15-.33s-.28.02-.33.15c-.05.13.02.28.15.33Z"/>
        <path class="cls-6" d="m47.45,31.87c.09-.11.07-.28-.04-.37s-.28-.07-.36.04c-.09.11-.07.28.04.37.11.09.28.07.37-.04Z"/>
        <path class="cls-6" d="m46.98,35.7c-.12.08-.15.24-.07.36.08.12.24.15.36.07.12-.08.15-.24.07-.36-.08-.12-.24-.15-.36-.07Z"/>
        <path class="cls-6" d="m51,37.14c-.14.04-.22.18-.18.32.04.14.18.22.32.18.14-.04.22-.18.18-.32-.04-.14-.18-.22-.32-.18Z"/>
      </g>
      <path class="cls-4" d="m61.11,21.34c4.5,6.67,3.11,15.58-2.98,20.59.43-.24.86-.49,1.28-.78,7.09-4.78,8.96-14.4,4.18-21.48-4.78-7.09-14.4-8.96-21.48-4.18-.42.28-.82.58-1.2.9,6.92-3.76,15.71-1.71,20.2,4.95Z"/>
      <path class="cls-7" d="m45.88,17.36c-.75-.53-1.82-1.08-3.03-1.14-1.02-.04-1.96.28-2.71.66.64-.54,1.31-1.28,1.67-2.24.42-1.13.33-2.33.14-3.23l-1.21.66-.48-1.29c-.73.55-1.59,1.39-2.02,2.53-.36.96-.34,1.96-.21,2.79-.32-.78-.81-1.64-1.61-2.28-.95-.75-2.12-1.03-3.03-1.13l.26,1.36-1.38.06c.3.87.83,1.94,1.78,2.7.8.64,1.76.93,2.58,1.06-.84.06-1.81.27-2.67.83-1.01.67-1.64,1.7-2.01,2.53l1.37.18-.37,1.33c.92-.01,2.11-.19,3.12-.86.85-.57,1.42-1.38,1.81-2.13-.2.81-.31,1.81-.03,2.79.32,1.17,1.11,2.08,1.79,2.69l.59-1.25,1.15.77c.27-.87.47-2.06.15-3.23-.27-.99-.88-1.78-1.47-2.38.71.44,1.62.85,2.65.9,1.21.05,2.32-.41,3.11-.87l-1-.95,1.08-.85Z"/>
      <g>
        <path class="cls-6" d="m39.69,14.88c.13.05.28-.02.33-.15.05-.13-.02-.28-.15-.33-.13-.05-.28.02-.33.15-.05.13.02.28.15.33Z"/>
        <path class="cls-6" d="m35.95,15.87c.09-.11.07-.28-.04-.37-.11-.09-.28-.07-.36.04-.09.11-.07.28.04.37.11.09.28.07.37-.04Z"/>
        <path class="cls-6" d="m35.42,19.7c-.12.08-.15.24-.07.36.08.12.24.15.36.07.12-.08.15-.24.07-.36-.08-.12-.24-.15-.36-.07Z"/>
        <path class="cls-6" d="m39.46,21.09c-.14.04-.22.18-.18.32.04.14.18.22.32.18.14-.04.22-.18.18-.32-.04-.14-.18-.22-.32-.18Z"/>
        <path class="cls-6" d="m39.42,17.84c-.03-.29-.21-.55-.49-.69.09-.2.18-.42.27-.66.32-.85.47-1.57.47-1.57,0,0-.36.65-.68,1.5-.09.24-.16.47-.23.68-.32-.08-.64,0-.86.23-.17-.15-.36-.32-.57-.49-.71-.56-1.35-.93-1.35-.93,0,0,.5.54,1.21,1.11.22.18.43.32.62.46-.04.05-.08.1-.1.16-.09.25-.06.51.06.73-.2.11-.41.24-.65.4-.75.5-1.3,1-1.3,1,0,0,.67-.31,1.43-.81.24-.16.44-.31.62-.45.1.12.21.22.37.28.16.06.33.06.49.02.05.22.1.45.17.7.24.87.54,1.55.54,1.55,0,0-.09-.74-.33-1.61-.07-.25-.14-.48-.21-.68.22-.09.39-.27.48-.5.03-.08.03-.16.04-.24.23.03.49.05.78.06.9.04,1.64-.04,1.64-.04,0,0-.73-.14-1.63-.18-.29-.01-.55-.01-.78,0Z"/>
        <path class="cls-6" d="m42.16,17.79c-.14,0-.26.1-.27.25,0,.14.1.26.25.27.14,0,.26-.1.27-.25,0-.14-.1-.26-.25-.27Z"/>
      </g>
      <path class="cls-1" d="m33.35,42.57c4.71,0,8.52-3.82,8.52-8.52s-3.82-8.52-8.52-8.52-8.52,3.82-8.52,8.52,3.82,8.52,8.52,8.52Z"/>
    </g>
  </g>
</svg>