<?xml version="1.0" encoding="UTF-8"?>
<svg id="_レイヤー_2" data-name="レイヤー 2" xmlns="http://www.w3.org/2000/svg" viewBox="0 0 36 37.08">
  <defs>
    <style>
      .cls-1 {
        fill: #fff;
        opacity: .64;
        stroke-width: 0px;
      }
    </style>
  </defs>
  <g id="_枠" data-name="枠">
    <path class="cls-1" d="m18,0c9.94,0,18,8.3,18,18.54,0,10.24-8.06,18.54-18,18.54C8.06,37.08,0,28.78,0,18.54,0,8.3,8.06,0,18,0Zm2.47,25.39c.27,0,.53-.1.73-.3.4-.4.4-1.06,0-1.47l-5.05-5.05,5.05-5.05c.4-.4.4-1.06,0-1.47-.4-.4-1.06-.4-1.47,0l-6.52,6.52,6.52,6.52c.2.2.47.3.73.3Z"/>
  </g>
</svg>