<?xml version="1.0" encoding="UTF-8"?>
<svg id="_レイヤー_2" data-name="レイヤー 2" xmlns="http://www.w3.org/2000/svg" viewBox="0 0 1387.18 961.19">
  <defs>
    <style>
      .cls-1 {
        fill: #fff;
        stroke-width: 0px;
      }
    </style>
  </defs>
  <g id="_ベース" data-name="ベース">
    <g>
      <path class="cls-1" d="m152.92,480.6c0-24.13,19.56-43.69,43.69-43.69,24.13,0,43.69,19.56,43.69,43.69,0,24.13-19.56,43.69-43.69,43.69-24.13,0-43.69-19.56-43.69-43.69Zm43.69,54.61c30.16,0,54.61-24.45,54.61-54.61,0-30.16-24.45-54.61-54.61-54.61-30.16,0-54.61,24.45-54.61,54.61,0,30.16,24.45,54.61,54.61,54.61Z"/>
      <path class="cls-1" d="m10.92,480.6c0-24.13,19.56-43.69,43.69-43.69,24.13,0,43.69,19.56,43.69,43.69,0,24.13-19.56,43.69-43.69,43.69-24.13,0-43.69-19.56-43.69-43.69Zm43.69,54.61c30.16,0,54.61-24.45,54.61-54.61,0-30.16-24.45-54.61-54.61-54.61C24.45,425.98,0,450.44,0,480.6c0,30.16,24.45,54.61,54.61,54.61Z"/>
      <path class="cls-1" d="m10.92,622.59c0-24.13,19.56-43.69,43.69-43.69,24.13,0,43.69,19.56,43.69,43.69,0,24.13-19.56,43.69-43.69,43.69-24.13,0-43.69-19.56-43.69-43.69Zm43.69,54.61c30.16,0,54.61-24.45,54.61-54.61,0-30.16-24.45-54.61-54.61-54.61C24.45,567.98,0,592.43,0,622.59c0,30.16,24.45,54.61,54.61,54.61Z"/>
      <path class="cls-1" d="m338.6,808.28c-24.13,0-43.69-19.56-43.69-43.69,0-24.13,19.56-43.69,43.69-43.69,24.13,0,43.69,19.56,43.69,43.69,0,24.13-19.56,43.69-43.69,43.69Zm54.61-43.69c0-30.16-24.45-54.61-54.61-54.61-30.16,0-54.61,24.45-54.61,54.61,0,30.16,24.45,54.61,54.61,54.61,30.16,0,54.61-24.45,54.61-54.61Z"/>
      <path class="cls-1" d="m480.6,808.28c-24.13,0-43.69-19.56-43.69-43.69,0-24.13,19.56-43.69,43.69-43.69,24.13,0,43.69,19.56,43.69,43.69,0,24.13-19.56,43.69-43.69,43.69Zm54.61-43.69c0-30.16-24.45-54.61-54.61-54.61-30.16,0-54.61,24.45-54.61,54.61,0,30.16,24.45,54.61,54.61,54.61,30.16,0,54.61-24.45,54.61-54.61Z"/>
      <path class="cls-1" d="m622.59,808.28c-24.13,0-43.69-19.56-43.69-43.69,0-24.13,19.56-43.69,43.69-43.69,24.13,0,43.69,19.56,43.69,43.69,0,24.13-19.56,43.69-43.69,43.69Zm54.61-43.69c0-30.16-24.45-54.61-54.61-54.61-30.16,0-54.61,24.45-54.61,54.61,0,30.16,24.45,54.61,54.61,54.61,30.16,0,54.61-24.45,54.61-54.61Z"/>
      <path class="cls-1" d="m764.59,808.28c-24.13,0-43.69-19.56-43.69-43.69,0-24.13,19.56-43.69,43.69-43.69,24.13,0,43.69,19.56,43.69,43.69,0,24.13-19.56,43.69-43.69,43.69Zm54.61-43.69c0-30.16-24.45-54.61-54.61-54.61-30.16,0-54.61,24.45-54.61,54.61,0,30.16,24.45,54.61,54.61,54.61,30.16,0,54.61-24.45,54.61-54.61Z"/>
      <path class="cls-1" d="m906.58,808.28c-24.13,0-43.69-19.56-43.69-43.69,0-24.13,19.56-43.69,43.69-43.69,24.13,0,43.69,19.56,43.69,43.69,0,24.13-19.56,43.69-43.69,43.69Zm54.61-43.69c0-30.16-24.45-54.61-54.61-54.61-30.16,0-54.61,24.45-54.61,54.61,0,30.16,24.45,54.61,54.61,54.61,30.16,0,54.61-24.45,54.61-54.61Z"/>
      <path class="cls-1" d="m1048.58,808.28c-24.13,0-43.69-19.56-43.69-43.69,0-24.13,19.56-43.69,43.69-43.69,24.13,0,43.69,19.56,43.69,43.69,0,24.13-19.56,43.69-43.69,43.69Zm54.61-43.69c0-30.16-24.45-54.61-54.61-54.61-30.16,0-54.61,24.45-54.61,54.61,0,30.16,24.45,54.61,54.61,54.61,30.16,0,54.61-24.45,54.61-54.61Z"/>
      <path class="cls-1" d="m338.6,666.28c-24.13,0-43.69-19.56-43.69-43.69,0-24.13,19.56-43.69,43.69-43.69,24.13,0,43.69,19.56,43.69,43.69,0,24.13-19.56,43.69-43.69,43.69Zm54.61-43.69c0-30.16-24.45-54.61-54.61-54.61-30.16,0-54.61,24.45-54.61,54.61,0,30.16,24.45,54.61,54.61,54.61,30.16,0,54.61-24.45,54.61-54.61Z"/>
      <path class="cls-1" d="m480.6,666.28c-24.13,0-43.69-19.56-43.69-43.69,0-24.13,19.56-43.69,43.69-43.69,24.13,0,43.69,19.56,43.69,43.69,0,24.13-19.56,43.69-43.69,43.69Zm54.61-43.69c0-30.16-24.45-54.61-54.61-54.61-30.16,0-54.61,24.45-54.61,54.61,0,30.16,24.45,54.61,54.61,54.61,30.16,0,54.61-24.45,54.61-54.61Z"/>
      <path class="cls-1" d="m764.59,666.28c-24.13,0-43.69-19.56-43.69-43.69,0-24.13,19.56-43.69,43.69-43.69,24.13,0,43.69,19.56,43.69,43.69,0,24.13-19.56,43.69-43.69,43.69Zm54.61-43.69c0-30.16-24.45-54.61-54.61-54.61-30.16,0-54.61,24.45-54.61,54.61,0,30.16,24.45,54.61,54.61,54.61,30.16,0,54.61-24.45,54.61-54.61Z"/>
      <path class="cls-1" d="m906.58,666.28c-24.13,0-43.69-19.56-43.69-43.69,0-24.13,19.56-43.69,43.69-43.69,24.13,0,43.69,19.56,43.69,43.69,0,24.13-19.56,43.69-43.69,43.69Zm54.61-43.69c0-30.16-24.45-54.61-54.61-54.61-30.16,0-54.61,24.45-54.61,54.61,0,30.16,24.45,54.61,54.61,54.61,30.16,0,54.61-24.45,54.61-54.61Z"/>
      <path class="cls-1" d="m196.61,808.28c-24.13,0-43.69-19.56-43.69-43.69,0-24.13,19.56-43.69,43.69-43.69,24.13,0,43.69,19.56,43.69,43.69,0,24.13-19.56,43.69-43.69,43.69Zm54.61-43.69c0-30.16-24.45-54.61-54.61-54.61-30.16,0-54.61,24.45-54.61,54.61,0,30.16,24.45,54.61,54.61,54.61,30.16,0,54.61-24.45,54.61-54.61Z"/>
      <path class="cls-1" d="m54.61,808.28c-24.13,0-43.69-19.56-43.69-43.69,0-24.13,19.56-43.69,43.69-43.69,24.13,0,43.69,19.56,43.69,43.69,0,24.13-19.56,43.69-43.69,43.69Zm54.61-43.69c0-30.16-24.45-54.61-54.61-54.61C24.45,709.97,0,734.42,0,764.59c0,30.16,24.45,54.61,54.61,54.61,30.16,0,54.61-24.45,54.61-54.61Z"/>
      <path class="cls-1" d="m480.6,950.27c-24.13,0-43.69-19.56-43.69-43.69,0-24.13,19.56-43.69,43.69-43.69,24.13,0,43.69,19.56,43.69,43.69,0,24.13-19.56,43.69-43.69,43.69Zm54.61-43.69c0-30.16-24.45-54.61-54.61-54.61-30.16,0-54.61,24.45-54.61,54.61,0,30.16,24.45,54.61,54.61,54.61,30.16,0,54.61-24.45,54.61-54.61Z"/>
      <path class="cls-1" d="m622.59,950.27c-24.13,0-43.69-19.56-43.69-43.69,0-24.13,19.56-43.69,43.69-43.69,24.13,0,43.69,19.56,43.69,43.69,0,24.13-19.56,43.69-43.69,43.69Zm54.61-43.69c0-30.16-24.45-54.61-54.61-54.61-30.16,0-54.61,24.45-54.61,54.61,0,30.16,24.45,54.61,54.61,54.61,30.16,0,54.61-24.45,54.61-54.61Z"/>
      <path class="cls-1" d="m906.58,950.27c-24.13,0-43.69-19.56-43.69-43.69,0-24.13,19.56-43.69,43.69-43.69,24.13,0,43.69,19.56,43.69,43.69,0,24.13-19.56,43.69-43.69,43.69Zm54.61-43.69c0-30.16-24.45-54.61-54.61-54.61-30.16,0-54.61,24.45-54.61,54.61,0,30.16,24.45,54.61,54.61,54.61,30.16,0,54.61-24.45,54.61-54.61Z"/>
      <path class="cls-1" d="m1048.58,950.27c-24.13,0-43.69-19.56-43.69-43.69,0-24.13,19.56-43.69,43.69-43.69,24.13,0,43.69,19.56,43.69,43.69,0,24.13-19.56,43.69-43.69,43.69Zm54.61-43.69c0-30.16-24.45-54.61-54.61-54.61-30.16,0-54.61,24.45-54.61,54.61,0,30.16,24.45,54.61,54.61,54.61,30.16,0,54.61-24.45,54.61-54.61Z"/>
      <path class="cls-1" d="m1332.57,950.27c-24.13,0-43.69-19.56-43.69-43.69,0-24.13,19.56-43.69,43.69-43.69,24.13,0,43.69,19.56,43.69,43.69,0,24.13-19.56,43.69-43.69,43.69Zm54.61-43.69c0-30.16-24.45-54.61-54.61-54.61-30.16,0-54.61,24.45-54.61,54.61,0,30.16,24.45,54.61,54.61,54.61,30.16,0,54.61-24.45,54.61-54.61Z"/>
      <path class="cls-1" d="m196.61,950.27c-24.13,0-43.69-19.56-43.69-43.69,0-24.13,19.56-43.69,43.69-43.69,24.13,0,43.69,19.56,43.69,43.69,0,24.13-19.56,43.69-43.69,43.69Zm54.61-43.69c0-30.16-24.45-54.61-54.61-54.61-30.16,0-54.61,24.45-54.61,54.61,0,30.16,24.45,54.61,54.61,54.61,30.16,0,54.61-24.45,54.61-54.61Z"/>
      <path class="cls-1" d="m54.61,950.27c-24.13,0-43.69-19.56-43.69-43.69,0-24.13,19.56-43.69,43.69-43.69,24.13,0,43.69,19.56,43.69,43.69,0,24.13-19.56,43.69-43.69,43.69Zm54.61-43.69c0-30.16-24.45-54.61-54.61-54.61C24.45,851.97,0,876.42,0,906.58c0,30.16,24.45,54.61,54.61,54.61,30.16,0,54.61-24.45,54.61-54.61Z"/>
      <path class="cls-1" d="m1092.27,338.6c0,24.13-19.56,43.69-43.69,43.69-24.13,0-43.69-19.56-43.69-43.69s19.56-43.69,43.69-43.69c24.13,0,43.69,19.56,43.69,43.69Zm-43.69-54.61c-30.16,0-54.61,24.45-54.61,54.61,0,30.16,24.45,54.61,54.61,54.61,30.16,0,54.61-24.45,54.61-54.61,0-30.16-24.45-54.61-54.61-54.61Z"/>
      <path class="cls-1" d="m808.28,338.6c0,24.13-19.56,43.69-43.69,43.69-24.13,0-43.69-19.56-43.69-43.69,0-24.13,19.56-43.69,43.69-43.69,24.13,0,43.69,19.56,43.69,43.69Zm-43.69-54.61c-30.16,0-54.61,24.45-54.61,54.61,0,30.16,24.45,54.61,54.61,54.61,30.16,0,54.61-24.45,54.61-54.61,0-30.16-24.45-54.61-54.61-54.61Z"/>
      <path class="cls-1" d="m666.28,338.6c0,24.13-19.56,43.69-43.69,43.69-24.13,0-43.69-19.56-43.69-43.69,0-24.13,19.56-43.69,43.69-43.69,24.13,0,43.69,19.56,43.69,43.69Zm-43.69-54.61c-30.16,0-54.61,24.45-54.61,54.61,0,30.16,24.45,54.61,54.61,54.61,30.16,0,54.61-24.45,54.61-54.61,0-30.16-24.45-54.61-54.61-54.61Z"/>
      <path class="cls-1" d="m338.6,152.92c24.13,0,43.69,19.56,43.69,43.69,0,24.13-19.56,43.69-43.69,43.69-24.13,0-43.69-19.56-43.69-43.69,0-24.13,19.56-43.69,43.69-43.69Zm-54.61,43.69c0,30.16,24.45,54.61,54.61,54.61,30.16,0,54.61-24.45,54.61-54.61,0-30.16-24.45-54.61-54.61-54.61-30.16,0-54.61,24.45-54.61,54.61Z"/>
      <path class="cls-1" d="m196.61,152.92c24.13,0,43.69,19.56,43.69,43.69,0,24.13-19.56,43.69-43.69,43.69s-43.69-19.56-43.69-43.69,19.56-43.69,43.69-43.69Zm-54.61,43.69c0,30.16,24.45,54.61,54.61,54.61,30.16,0,54.61-24.45,54.61-54.61,0-30.16-24.45-54.61-54.61-54.61-30.16,0-54.61,24.45-54.61,54.61Z"/>
      <path class="cls-1" d="m54.61,152.92c24.13,0,43.69,19.56,43.69,43.69,0,24.13-19.56,43.69-43.69,43.69-24.13,0-43.69-19.56-43.69-43.69,0-24.13,19.56-43.69,43.69-43.69ZM0,196.61c0,30.16,24.45,54.61,54.61,54.61,30.16,0,54.61-24.45,54.61-54.61,0-30.16-24.45-54.61-54.61-54.61C24.45,141.99,0,166.45,0,196.61Z"/>
      <path class="cls-1" d="m338.6,294.91c24.13,0,43.69,19.56,43.69,43.69,0,24.13-19.56,43.69-43.69,43.69-24.13,0-43.69-19.56-43.69-43.69s19.56-43.69,43.69-43.69Zm-54.61,43.69c0,30.16,24.45,54.61,54.61,54.61,30.16,0,54.61-24.45,54.61-54.61,0-30.16-24.45-54.61-54.61-54.61-30.16,0-54.61,24.45-54.61,54.61Z"/>
      <path class="cls-1" d="m196.61,294.91c24.13,0,43.69,19.56,43.69,43.69,0,24.13-19.56,43.69-43.69,43.69-24.13,0-43.69-19.56-43.69-43.69,0-24.13,19.56-43.69,43.69-43.69Zm-54.61,43.69c0,30.16,24.45,54.61,54.61,54.61,30.16,0,54.61-24.45,54.61-54.61,0-30.16-24.45-54.61-54.61-54.61-30.16,0-54.61,24.45-54.61,54.61Z"/>
      <path class="cls-1" d="m480.6,152.92c24.13,0,43.69,19.56,43.69,43.69,0,24.13-19.56,43.69-43.69,43.69-24.13,0-43.69-19.56-43.69-43.69s19.56-43.69,43.69-43.69Zm-54.61,43.69c0,30.16,24.45,54.61,54.61,54.61,30.16,0,54.61-24.45,54.61-54.61,0-30.16-24.45-54.61-54.61-54.61-30.16,0-54.61,24.45-54.61,54.61Z"/>
      <path class="cls-1" d="m1048.58,152.92c24.13,0,43.69,19.56,43.69,43.69,0,24.13-19.56,43.69-43.69,43.69-24.13,0-43.69-19.56-43.69-43.69,0-24.13,19.56-43.69,43.69-43.69Zm-54.61,43.69c0,30.16,24.45,54.61,54.61,54.61,30.16,0,54.61-24.45,54.61-54.61,0-30.16-24.45-54.61-54.61-54.61-30.16,0-54.61,24.45-54.61,54.61Z"/>
      <path class="cls-1" d="m906.58,152.92c24.13,0,43.69,19.56,43.69,43.69,0,24.13-19.56,43.69-43.69,43.69-24.13,0-43.69-19.56-43.69-43.69,0-24.13,19.56-43.69,43.69-43.69Zm-54.61,43.69c0,30.16,24.45,54.61,54.61,54.61,30.16,0,54.61-24.45,54.61-54.61,0-30.16-24.45-54.61-54.61-54.61-30.16,0-54.61,24.45-54.61,54.61Z"/>
      <path class="cls-1" d="m764.59,152.92c24.13,0,43.69,19.56,43.69,43.69,0,24.13-19.56,43.69-43.69,43.69-24.13,0-43.69-19.56-43.69-43.69,0-24.13,19.56-43.69,43.69-43.69Zm-54.61,43.69c0,30.16,24.45,54.61,54.61,54.61,30.16,0,54.61-24.45,54.61-54.61,0-30.16-24.45-54.61-54.61-54.61-30.16,0-54.61,24.45-54.61,54.61Z"/>
      <path class="cls-1" d="m622.59,152.92c24.13,0,43.69,19.56,43.69,43.69,0,24.13-19.56,43.69-43.69,43.69-24.13,0-43.69-19.56-43.69-43.69,0-24.13,19.56-43.69,43.69-43.69Zm-54.61,43.69c0,30.16,24.45,54.61,54.61,54.61,30.16,0,54.61-24.45,54.61-54.61,0-30.16-24.45-54.61-54.61-54.61-30.16,0-54.61,24.45-54.61,54.61Z"/>
      <path class="cls-1" d="m338.6,436.91c24.13,0,43.69,19.56,43.69,43.69,0,24.13-19.56,43.69-43.69,43.69-24.13,0-43.69-19.56-43.69-43.69,0-24.13,19.56-43.69,43.69-43.69Zm-54.61,43.69c0,30.16,24.45,54.61,54.61,54.61,30.16,0,54.61-24.45,54.61-54.61,0-30.16-24.45-54.61-54.61-54.61-30.16,0-54.61,24.45-54.61,54.61Z"/>
      <path class="cls-1" d="m480.6,436.91c24.13,0,43.69,19.56,43.69,43.69,0,24.13-19.56,43.69-43.69,43.69-24.13,0-43.69-19.56-43.69-43.69s19.56-43.69,43.69-43.69Zm-54.61,43.69c0,30.16,24.45,54.61,54.61,54.61,30.16,0,54.61-24.45,54.61-54.61,0-30.16-24.45-54.61-54.61-54.61-30.16,0-54.61,24.45-54.61,54.61Z"/>
      <path class="cls-1" d="m1048.58,436.91c24.13,0,43.69,19.56,43.69,43.69,0,24.13-19.56,43.69-43.69,43.69-24.13,0-43.69-19.56-43.69-43.69,0-24.13,19.56-43.69,43.69-43.69Zm-54.61,43.69c0,30.16,24.45,54.61,54.61,54.61,30.16,0,54.61-24.45,54.61-54.61,0-30.16-24.45-54.61-54.61-54.61-30.16,0-54.61,24.45-54.61,54.61Z"/>
      <path class="cls-1" d="m906.58,436.91c24.13,0,43.69,19.56,43.69,43.69,0,24.13-19.56,43.69-43.69,43.69-24.13,0-43.69-19.56-43.69-43.69,0-24.13,19.56-43.69,43.69-43.69Zm-54.61,43.69c0,30.16,24.45,54.61,54.61,54.61,30.16,0,54.61-24.45,54.61-54.61,0-30.16-24.45-54.61-54.61-54.61-30.16,0-54.61,24.45-54.61,54.61Z"/>
      <path class="cls-1" d="m764.59,436.91c24.13,0,43.69,19.56,43.69,43.69,0,24.13-19.56,43.69-43.69,43.69-24.13,0-43.69-19.56-43.69-43.69,0-24.13,19.56-43.69,43.69-43.69Zm-54.61,43.69c0,30.16,24.45,54.61,54.61,54.61,30.16,0,54.61-24.45,54.61-54.61,0-30.16-24.45-54.61-54.61-54.61-30.16,0-54.61,24.45-54.61,54.61Z"/>
      <path class="cls-1" d="m1190.57,666.28c-24.13,0-43.69-19.56-43.69-43.69,0-24.13,19.56-43.69,43.69-43.69,24.13,0,43.69,19.56,43.69,43.69,0,24.13-19.56,43.69-43.69,43.69Zm54.61-43.69c0-30.16-24.45-54.61-54.61-54.61-30.16,0-54.61,24.45-54.61,54.61,0,30.16,24.45,54.61,54.61,54.61,30.16,0,54.61-24.45,54.61-54.61Z"/>
      <path class="cls-1" d="m1234.26,338.6c0,24.13-19.56,43.69-43.69,43.69-24.13,0-43.69-19.56-43.69-43.69,0-24.13,19.56-43.69,43.69-43.69,24.13,0,43.69,19.56,43.69,43.69Zm-43.69-54.61c-30.16,0-54.61,24.45-54.61,54.61,0,30.16,24.45,54.61,54.61,54.61,30.16,0,54.61-24.45,54.61-54.61,0-30.16-24.45-54.61-54.61-54.61Z"/>
      <path class="cls-1" d="m1190.57,152.92c24.13,0,43.69,19.56,43.69,43.69,0,24.13-19.56,43.69-43.69,43.69-24.13,0-43.69-19.56-43.69-43.69,0-24.13,19.56-43.69,43.69-43.69Zm-54.61,43.69c0,30.16,24.45,54.61,54.61,54.61,30.16,0,54.61-24.45,54.61-54.61,0-30.16-24.45-54.61-54.61-54.61-30.16,0-54.61,24.45-54.61,54.61Z"/>
      <path class="cls-1" d="m1190.57,436.91c24.13,0,43.69,19.56,43.69,43.69,0,24.13-19.56,43.69-43.69,43.69-24.13,0-43.69-19.56-43.69-43.69,0-24.13,19.56-43.69,43.69-43.69Zm-54.61,43.69c0,30.16,24.45,54.61,54.61,54.61,30.16,0,54.61-24.45,54.61-54.61,0-30.16-24.45-54.61-54.61-54.61-30.16,0-54.61,24.45-54.61,54.61Z"/>
      <path class="cls-1" d="m1190.57,808.28c-24.13,0-43.69-19.56-43.69-43.69,0-24.13,19.56-43.69,43.69-43.69,24.13,0,43.69,19.56,43.69,43.69s-19.56,43.69-43.69,43.69Zm54.61-43.69c0-30.16-24.45-54.61-54.61-54.61-30.16,0-54.61,24.45-54.61,54.61,0,30.16,24.45,54.61,54.61,54.61,30.16,0,54.61-24.45,54.61-54.61Z"/>
      <path class="cls-1" d="m1332.57,808.28c-24.13,0-43.69-19.56-43.69-43.69,0-24.13,19.56-43.69,43.69-43.69,24.13,0,43.69,19.56,43.69,43.69,0,24.13-19.56,43.69-43.69,43.69Zm54.61-43.69c0-30.16-24.45-54.61-54.61-54.61-30.16,0-54.61,24.45-54.61,54.61,0,30.16,24.45,54.61,54.61,54.61,30.16,0,54.61-24.45,54.61-54.61Z"/>
      <path class="cls-1" d="m1332.57,666.28c-24.13,0-43.69-19.56-43.69-43.69,0-24.13,19.56-43.69,43.69-43.69,24.13,0,43.69,19.56,43.69,43.69,0,24.13-19.56,43.69-43.69,43.69Zm54.61-43.69c0-30.16-24.45-54.61-54.61-54.61-30.16,0-54.61,24.45-54.61,54.61,0,30.16,24.45,54.61,54.61,54.61,30.16,0,54.61-24.45,54.61-54.61Z"/>
      <path class="cls-1" d="m1332.57,152.92c24.13,0,43.69,19.56,43.69,43.69,0,24.13-19.56,43.69-43.69,43.69-24.13,0-43.69-19.56-43.69-43.69,0-24.13,19.56-43.69,43.69-43.69Zm-54.61,43.69c0,30.16,24.45,54.61,54.61,54.61,30.16,0,54.61-24.45,54.61-54.61,0-30.16-24.45-54.61-54.61-54.61-30.16,0-54.61,24.45-54.61,54.61Z"/>
      <path class="cls-1" d="m1332.57,436.91c24.13,0,43.69,19.56,43.69,43.69,0,24.13-19.56,43.69-43.69,43.69-24.13,0-43.69-19.56-43.69-43.69,0-24.13,19.56-43.69,43.69-43.69Zm-54.61,43.69c0,30.16,24.45,54.61,54.61,54.61,30.16,0,54.61-24.45,54.61-54.61,0-30.16-24.45-54.61-54.61-54.61-30.16,0-54.61,24.45-54.61,54.61Z"/>
      <path class="cls-1" d="m622.59,436.91c24.13,0,43.69,19.56,43.69,43.69,0,24.13-19.56,43.69-43.69,43.69-24.13,0-43.69-19.56-43.69-43.69,0-24.13,19.56-43.69,43.69-43.69Zm-54.61,43.69c0,30.16,24.45,54.61,54.61,54.61,30.16,0,54.61-24.45,54.61-54.61,0-30.16-24.45-54.61-54.61-54.61-30.16,0-54.61,24.45-54.61,54.61Z"/>
      <path class="cls-1" d="m196.61,10.92c24.13,0,43.69,19.56,43.69,43.69,0,24.13-19.56,43.69-43.69,43.69s-43.69-19.56-43.69-43.69,19.56-43.69,43.69-43.69Zm-54.61,43.69c0,30.16,24.45,54.61,54.61,54.61,30.16,0,54.61-24.45,54.61-54.61C251.22,24.45,226.77,0,196.61,0c-30.16,0-54.61,24.45-54.61,54.61Z"/>
      <path class="cls-1" d="m54.61,10.92c24.13,0,43.69,19.56,43.69,43.69,0,24.13-19.56,43.69-43.69,43.69-24.13,0-43.69-19.56-43.69-43.69,0-24.13,19.56-43.69,43.69-43.69ZM0,54.61c0,30.16,24.45,54.61,54.61,54.61,30.16,0,54.61-24.45,54.61-54.61C109.23,24.45,84.78,0,54.61,0,24.45,0,0,24.45,0,54.61Z"/>
      <path class="cls-1" d="m480.6,10.92c24.13,0,43.69,19.56,43.69,43.69,0,24.13-19.56,43.69-43.69,43.69-24.13,0-43.69-19.56-43.69-43.69,0-24.13,19.56-43.69,43.69-43.69Zm-54.61,43.69c0,30.16,24.45,54.61,54.61,54.61,30.16,0,54.61-24.45,54.61-54.61C535.21,24.45,510.76,0,480.6,0c-30.16,0-54.61,24.45-54.61,54.61Z"/>
      <path class="cls-1" d="m1048.58,10.92c24.13,0,43.69,19.56,43.69,43.69,0,24.13-19.56,43.69-43.69,43.69-24.13,0-43.69-19.56-43.69-43.69,0-24.13,19.56-43.69,43.69-43.69Zm-54.61,43.69c0,30.16,24.45,54.61,54.61,54.61,30.16,0,54.61-24.45,54.61-54.61C1103.19,24.45,1078.74,0,1048.58,0c-30.16,0-54.61,24.45-54.61,54.61Z"/>
      <path class="cls-1" d="m1332.57,10.92c24.13,0,43.69,19.56,43.69,43.69,0,24.13-19.56,43.69-43.69,43.69-24.13,0-43.69-19.56-43.69-43.69,0-24.13,19.56-43.69,43.69-43.69Zm-54.61,43.69c0,30.16,24.45,54.61,54.61,54.61,30.16,0,54.61-24.45,54.61-54.61C1387.18,24.45,1362.73,0,1332.57,0c-30.16,0-54.61,24.45-54.61,54.61Z"/>
      <path class="cls-1" d="m906.58,10.92c24.13,0,43.69,19.56,43.69,43.69,0,24.13-19.56,43.69-43.69,43.69-24.13,0-43.69-19.56-43.69-43.69,0-24.13,19.56-43.69,43.69-43.69Zm-54.61,43.69c0,30.16,24.45,54.61,54.61,54.61,30.16,0,54.61-24.45,54.61-54.61C961.19,24.45,936.74,0,906.58,0c-30.16,0-54.61,24.45-54.61,54.61Z"/>
      <path class="cls-1" d="m622.59,10.92c24.13,0,43.69,19.56,43.69,43.69,0,24.13-19.56,43.69-43.69,43.69-24.13,0-43.69-19.56-43.69-43.69,0-24.13,19.56-43.69,43.69-43.69Zm-54.61,43.69c0,30.16,24.45,54.61,54.61,54.61,30.16,0,54.61-24.45,54.61-54.61C677.21,24.45,652.75,0,622.59,0c-30.16,0-54.61,24.45-54.61,54.61Z"/>
      <g>
        <path class="cls-1" d="m936.25,389.23c-15.79,10.4-28.4-2.82-31.27-2.82s-15.48,11.74-31.27,1.34c-26.42-17.39-26.63-57.87-12.05-72.09,16.23-15.84,32.23-6.4,43.32-6.4s25.62-10.45,42.41-1.04c23.4,13.12,15.27,63.62-11.15,81.01Zm.62-70.65c-12.5-7.01-23.31.77-31.57.77s-20.3-6.06-32.01,2.21c-12.38,8.75-10.93,43.26,8.74,56.21,11.75,7.74,21.14-1,23.27-1s11.52,9.84,23.27,2.1c19.66-12.95,25.71-50.54,8.3-60.3Z"/>
        <path class="cls-1" d="m905.72,283.99c-1.64,3.22-2.63,7.37-2.63,11.92s.99,8.7,2.63,11.92c1.64-3.22,2.63-7.37,2.63-11.92s-.99-8.7-2.63-11.92Z"/>
        <path class="cls-1" d="m931.55,291.16c-6.14-8.01-18.73-4.66-20.85,3.89,6.38,6.87,18.03,2.84,20.85-3.89Z"/>
        <path class="cls-1" d="m922.1,337.24c-1.91,1.87-6.97,4.17-8.6,2.5-1.62-1.67.81-6.68,2.72-8.55,1.91-1.87,4.78-2.02,6.4-.35,1.62,1.67,1.39,4.54-.52,6.4Z"/>
        <path class="cls-1" d="m895.62,362.85c1.27-1.3,2.84-4.76,1.7-5.87s-4.55.55-5.82,1.86c-1.27,1.3-1.38,3.26-.24,4.37,1.14,1.11,3.09.95,4.35-.35Z"/>
        <path class="cls-1" d="m915.72,365.09c-1.99-2.04-4.45-7.47-2.67-9.2s7.13.86,9.11,2.91c1.99,2.04,2.16,5.11.38,6.85-1.78,1.74-4.84,1.49-6.82-.55Z"/>
        <path class="cls-1" d="m889.03,336.93c2.02,1.97,7.37,4.41,9.09,2.64,1.72-1.76-.85-7.06-2.87-9.03-2.02-1.97-5.05-2.14-6.76-.37-1.72,1.76-1.47,4.79.55,6.76Z"/>
      </g>
      <g>
        <path class="cls-1" d="m510.27,389.23c-15.79,10.4-28.4-2.82-31.27-2.82s-15.48,11.74-31.27,1.34c-26.42-17.39-26.63-57.87-12.05-72.09,16.23-15.84,32.23-6.4,43.32-6.4s25.62-10.45,42.41-1.04c23.4,13.12,15.27,63.62-11.15,81.01Zm-26.22-19.01c0,4.06,9.22,7.87,18.62,1.68,15.73-10.36,20.57-40.43,6.64-48.24-10-5.61-19.55-4.73-25.26.62v45.94Z"/>
        <path class="cls-1" d="m479.74,283.99c-1.64,3.22-2.63,7.37-2.63,11.92s.99,8.7,2.63,11.92c1.64-3.22,2.63-7.37,2.63-11.92s-.99-8.7-2.63-11.92Z"/>
        <path class="cls-1" d="m505.57,291.16c-6.14-8.01-18.73-4.66-20.85,3.89,6.38,6.87,18.03,2.84,20.85-3.89Z"/>
        <path class="cls-1" d="m491.78,350.3c.06-2.85,2.18-8.41,4.67-8.36,2.49.05,4.39,5.69,4.33,8.54-.06,2.85-2.12,5.13-4.6,5.08-2.49-.05-4.45-2.4-4.4-5.26Z"/>
      </g>
      <g>
        <path class="cls-1" d="m95.43,308.22c-16.8-9.42-31.32,1.04-42.41,1.04s-27.09-9.44-43.32,6.4c-14.58,14.22-14.37,54.7,12.05,72.09,15.79,10.4,28.4-1.34,31.27-1.34s15.48,13.22,31.27,2.82c26.42-17.39,34.55-67.89,11.15-81.01Z"/>
        <path class="cls-1" d="m53.75,283.99c-1.64,3.22-2.63,7.37-2.63,11.92s.99,8.7,2.63,11.92c1.64-3.22,2.63-7.37,2.63-11.92s-.99-8.7-2.63-11.92Z"/>
        <path class="cls-1" d="m79.58,291.16c-6.14-8.01-18.73-4.66-20.85,3.89,6.38,6.87,18.03,2.84,20.85-3.89Z"/>
      </g>
      <g>
        <path class="cls-1" d="m1373.38,308.22c-16.8-9.42-31.32,1.04-42.41,1.04s-27.09-9.44-43.32,6.4c-14.58,14.22-14.37,54.7,12.05,72.09,15.79,10.4,28.4-1.34,31.27-1.34s15.48,13.22,31.27,2.82c26.42-17.39,34.55-67.89,11.15-81.01Z"/>
        <path class="cls-1" d="m1331.71,283.99c-1.64,3.22-2.63,7.37-2.63,11.92s.99,8.7,2.63,11.92c1.64-3.22,2.63-7.37,2.63-11.92s-.99-8.7-2.63-11.92Z"/>
        <path class="cls-1" d="m1357.54,291.16c-6.14-8.01-18.73-4.66-20.85,3.89,6.38,6.87,18.03,2.84,20.85-3.89Z"/>
      </g>
      <g>
        <path class="cls-1" d="m1231.39,24.23c-16.8-9.42-31.32,1.04-42.41,1.04s-27.09-9.44-43.32,6.4c-14.58,14.22-14.37,54.7,12.05,72.09,15.79,10.4,28.4-1.34,31.27-1.34s15.48,13.22,31.27,2.82c26.42-17.39,34.55-67.89,11.15-81.01Z"/>
        <path class="cls-1" d="m1189.71,0c-1.64,3.22-2.63,7.37-2.63,11.92s.99,8.7,2.63,11.92c1.64-3.22,2.63-7.37,2.63-11.92s-.99-8.7-2.63-11.92Z"/>
        <path class="cls-1" d="m1215.54,7.17c-6.14-8.01-18.73-4.66-20.85,3.89,6.38,6.87,18.03,2.84,20.85-3.89Z"/>
      </g>
      <g>
        <path class="cls-1" d="m1078.25,673.22c-15.79,10.4-28.4-2.82-31.27-2.82s-15.48,11.74-31.27,1.34c-26.42-17.39-26.63-57.87-12.05-72.09,16.23-15.84,32.23-6.4,43.32-6.4s25.62-10.45,42.41-1.04c23.4,13.12,15.27,63.62-11.15,81.01Zm.62-70.65c-12.5-7.01-23.31.77-31.57.77s-20.3-6.06-32.01,2.21c-12.38,8.75-10.93,43.26,8.74,56.21,11.75,7.74,21.14-1,23.27-1s11.52,9.84,23.27,2.1c19.66-12.95,25.71-50.54,8.3-60.3Z"/>
        <path class="cls-1" d="m1047.72,567.98c-1.64,3.22-2.63,7.37-2.63,11.92s.99,8.7,2.63,11.92c1.64-3.22,2.63-7.37,2.63-11.92s-.99-8.7-2.63-11.92Z"/>
        <path class="cls-1" d="m1073.55,575.15c-6.14-8.01-18.73-4.66-20.85,3.89,6.38,6.87,18.03,2.84,20.85-3.89Z"/>
        <path class="cls-1" d="m1064.09,621.23c-1.91,1.87-6.97,4.17-8.6,2.5-1.62-1.67.81-6.68,2.72-8.55,1.91-1.87,4.78-2.02,6.4-.35,1.62,1.67,1.39,4.54-.52,6.4Z"/>
        <path class="cls-1" d="m1037.62,646.84c1.27-1.3,2.84-4.76,1.7-5.87-1.14-1.11-4.55.55-5.82,1.86-1.27,1.3-1.38,3.26-.24,4.37,1.14,1.11,3.09.95,4.35-.35Z"/>
        <path class="cls-1" d="m1057.71,649.07c-1.99-2.04-4.45-7.47-2.67-9.2,1.78-1.74,7.13.86,9.11,2.91,1.99,2.04,2.16,5.11.38,6.85-1.78,1.74-4.84,1.49-6.82-.55Z"/>
        <path class="cls-1" d="m1031.02,620.92c2.02,1.97,7.37,4.41,9.09,2.64,1.72-1.76-.85-7.06-2.87-9.03-2.02-1.97-5.05-2.14-6.76-.37-1.72,1.76-1.47,4.79.55,6.76Z"/>
      </g>
      <g>
        <path class="cls-1" d="m1220.24,957.21c-15.79,10.4-28.4-2.82-31.27-2.82s-15.48,11.74-31.27,1.34c-26.42-17.39-26.63-57.87-12.05-72.09,16.23-15.84,32.23-6.4,43.32-6.4s25.62-10.45,42.41-1.04c23.4,13.12,15.27,63.62-11.15,81.01Zm.62-70.65c-12.5-7.01-23.31.77-31.57.77s-20.3-6.06-32.01,2.21c-12.38,8.75-10.93,43.26,8.74,56.21,11.75,7.74,21.14-1,23.27-1s11.52,9.84,23.27,2.1c19.66-12.95,25.71-50.54,8.3-60.3Z"/>
        <path class="cls-1" d="m1189.71,851.97c-1.64,3.22-2.63,7.37-2.63,11.92s.99,8.7,2.63,11.92c1.64-3.22,2.63-7.37,2.63-11.92s-.99-8.7-2.63-11.92Z"/>
        <path class="cls-1" d="m1215.54,859.14c-6.14-8.01-18.73-4.66-20.85,3.89,6.38,6.87,18.03,2.84,20.85-3.89Z"/>
        <path class="cls-1" d="m1206.08,905.22c-1.91,1.87-6.97,4.17-8.6,2.5-1.62-1.67.81-6.68,2.72-8.55,1.91-1.87,4.78-2.02,6.4-.35,1.62,1.67,1.39,4.54-.52,6.4Z"/>
        <path class="cls-1" d="m1179.61,930.83c1.27-1.3,2.84-4.76,1.7-5.87-1.14-1.11-4.55.55-5.82,1.86-1.27,1.3-1.38,3.26-.24,4.37,1.14,1.11,3.09.95,4.35-.35Z"/>
        <path class="cls-1" d="m1199.71,933.06c-1.99-2.04-4.45-7.47-2.67-9.2,1.78-1.74,7.13.86,9.11,2.91,1.99,2.04,2.16,5.11.38,6.85-1.78,1.74-4.84,1.49-6.82-.55Z"/>
        <path class="cls-1" d="m1173.02,904.91c2.02,1.97,7.37,4.41,9.09,2.64,1.72-1.76-.85-7.06-2.87-9.03-2.02-1.97-5.05-2.14-6.76-.37-1.72,1.76-1.47,4.79.55,6.76Z"/>
      </g>
      <g>
        <path class="cls-1" d="m652.26,673.22c-15.79,10.4-28.4-2.82-31.27-2.82s-15.48,11.74-31.27,1.34c-26.42-17.39-26.63-57.87-12.05-72.09,16.23-15.84,32.23-6.4,43.32-6.4s25.62-10.45,42.41-1.04c23.4,13.12,15.27,63.62-11.15,81.01Zm-26.22-19.01c0,4.06,9.22,7.87,18.62,1.68,15.73-10.36,20.57-40.43,6.64-48.24-10-5.61-19.55-4.73-25.26.62v45.94Z"/>
        <path class="cls-1" d="m621.73,567.98c-1.64,3.22-2.63,7.37-2.63,11.92s.99,8.7,2.63,11.92c1.64-3.22,2.63-7.37,2.63-11.92s-.99-8.7-2.63-11.92Z"/>
        <path class="cls-1" d="m647.56,575.15c-6.14-8.01-18.73-4.66-20.85,3.89,6.38,6.87,18.03,2.84,20.85-3.89Z"/>
        <path class="cls-1" d="m633.78,634.29c.06-2.85,2.18-8.41,4.67-8.36s4.39,5.69,4.33,8.54c-.06,2.85-2.12,5.13-4.6,5.08-2.49-.05-4.45-2.4-4.4-5.26Z"/>
      </g>
      <g>
        <path class="cls-1" d="m237.42,592.21c-16.8-9.42-31.32,1.04-42.41,1.04s-27.09-9.44-43.32,6.4c-14.58,14.22-14.37,54.7,12.05,72.09,15.79,10.4,28.4-1.34,31.27-1.34s15.48,13.22,31.27,2.82c26.42-17.39,34.55-67.89,11.15-81.01Z"/>
        <path class="cls-1" d="m195.75,567.98c-1.64,3.22-2.63,7.37-2.63,11.92s.99,8.7,2.63,11.92c1.64-3.22,2.63-7.37,2.63-11.92s-.99-8.7-2.63-11.92Z"/>
        <path class="cls-1" d="m221.58,575.15c-6.14-8.01-18.73-4.66-20.85,3.89,6.38,6.87,18.03,2.84,20.85-3.89Z"/>
      </g>
      <g>
        <path class="cls-1" d="m794.26,957.21c-15.79,10.4-28.4-2.82-31.27-2.82s-15.48,11.74-31.27,1.34c-26.42-17.39-26.63-57.87-12.05-72.09,16.23-15.84,32.23-6.4,43.32-6.4s25.62-10.45,42.41-1.04c23.4,13.12,15.27,63.62-11.15,81.01Zm-26.22-19.01c0,4.06,9.22,7.87,18.62,1.68,15.73-10.36,20.57-40.43,6.64-48.24-10-5.61-19.55-4.73-25.26.62v45.94Z"/>
        <path class="cls-1" d="m763.73,851.97c-1.64,3.22-2.63,7.37-2.63,11.92s.99,8.7,2.63,11.92c1.64-3.22,2.63-7.37,2.63-11.92s-.99-8.7-2.63-11.92Z"/>
        <path class="cls-1" d="m789.56,859.14c-6.14-8.01-18.73-4.66-20.85,3.89,6.38,6.87,18.03,2.84,20.85-3.89Z"/>
        <path class="cls-1" d="m775.77,918.28c.06-2.85,2.18-8.41,4.67-8.36,2.49.05,4.39,5.69,4.33,8.54-.06,2.85-2.12,5.13-4.6,5.08-2.49-.05-4.45-2.4-4.4-5.26Z"/>
      </g>
      <g>
        <path class="cls-1" d="m379.42,876.19c-16.8-9.42-31.32,1.04-42.41,1.04s-27.09-9.44-43.32,6.4c-14.58,14.22-14.37,54.7,12.05,72.09,15.79,10.4,28.4-1.34,31.27-1.34s15.48,13.22,31.27,2.82c26.42-17.39,34.55-67.89,11.15-81.01Z"/>
        <path class="cls-1" d="m337.74,851.97c-1.64,3.22-2.63,7.37-2.63,11.92s.99,8.7,2.63,11.92c1.64-3.22,2.63-7.37,2.63-11.92s-.99-8.7-2.63-11.92Z"/>
        <path class="cls-1" d="m363.57,859.14c-6.14-8.01-18.73-4.66-20.85,3.89,6.38,6.87,18.03,2.84,20.85-3.89Z"/>
      </g>
      <g>
        <path class="cls-1" d="m794.26,105.24c-15.79,10.4-28.4-2.82-31.27-2.82s-15.48,11.74-31.27,1.34c-26.42-17.39-26.63-57.87-12.05-72.09,16.23-15.84,32.23-6.4,43.32-6.4s25.62-10.45,42.41-1.04c23.4,13.12,15.27,63.62-11.15,81.01Zm.62-70.65c-12.5-7.01-23.31.77-31.57.77s-20.3-6.06-32.01,2.21c-12.38,8.75-10.93,43.26,8.74,56.21,11.75,7.74,21.14-1,23.27-1s11.52,9.84,23.27,2.1c19.66-12.95,25.71-50.54,8.3-60.3Z"/>
        <path class="cls-1" d="m763.73,0c-1.64,3.22-2.63,7.37-2.63,11.92s.99,8.7,2.63,11.92c1.64-3.22,2.63-7.37,2.63-11.92S765.37,3.22,763.73,0Z"/>
        <path class="cls-1" d="m789.56,7.17c-6.14-8.01-18.73-4.66-20.85,3.89,6.38,6.87,18.03,2.84,20.85-3.89Z"/>
        <path class="cls-1" d="m780.1,53.25c-1.91,1.87-6.97,4.17-8.6,2.5-1.62-1.67.81-6.68,2.72-8.55,1.91-1.87,4.78-2.02,6.4-.35,1.62,1.67,1.39,4.54-.52,6.4Z"/>
        <path class="cls-1" d="m753.63,78.86c1.27-1.3,2.84-4.76,1.7-5.87s-4.55.55-5.82,1.86c-1.27,1.3-1.38,3.26-.24,4.37,1.14,1.11,3.09.95,4.35-.35Z"/>
        <path class="cls-1" d="m773.72,81.1c-1.99-2.04-4.45-7.47-2.67-9.2,1.78-1.74,7.13.86,9.11,2.91,1.99,2.04,2.16,5.11.38,6.85-1.78,1.74-4.84,1.49-6.82-.55Z"/>
        <path class="cls-1" d="m747.03,52.94c2.02,1.97,7.37,4.41,9.09,2.64,1.72-1.76-.85-7.06-2.87-9.03-2.02-1.97-5.05-2.14-6.76-.37-1.72,1.76-1.47,4.79.55,6.76Z"/>
      </g>
      <g>
        <path class="cls-1" d="m368.27,105.24c-15.79,10.4-28.4-2.82-31.27-2.82s-15.48,11.74-31.27,1.34c-26.42-17.39-26.63-57.87-12.05-72.09,16.23-15.84,32.23-6.4,43.32-6.4s25.62-10.45,42.41-1.04c23.4,13.12,15.27,63.62-11.15,81.01Zm-26.22-19.01c0,4.06,9.22,7.87,18.62,1.68,15.73-10.36,20.57-40.43,6.64-48.24-10-5.61-19.55-4.73-25.26.62v45.94Z"/>
        <path class="cls-1" d="m337.74,0c-1.64,3.22-2.63,7.37-2.63,11.92s.99,8.7,2.63,11.92c1.64-3.22,2.63-7.37,2.63-11.92S339.38,3.22,337.74,0Z"/>
        <path class="cls-1" d="m363.57,7.17c-6.14-8.01-18.73-4.66-20.85,3.89,6.38,6.87,18.03,2.84,20.85-3.89Z"/>
        <path class="cls-1" d="m349.79,66.31c.06-2.85,2.18-8.41,4.67-8.36s4.39,5.69,4.33,8.54c-.06,2.85-2.12,5.13-4.6,5.08-2.49-.05-4.45-2.4-4.4-5.26Z"/>
      </g>
    </g>
  </g>
</svg>